<?xml version="1.0" encoding="UTF-8"?>
<svg id="Layer_2" xmlns="http://www.w3.org/2000/svg" version="1.1" viewBox="0 0 314.4 64.8">
  <!-- Generator: Adobe Illustrator 30.1.0, SVG Export Plug-In . SVG Version: 2.1.1 Build 136)  -->
  <defs>
    <style>
      .st0 {
        fill: #b3d237;
      }

      .st1 {
        fill: #fff;
      }

      .st2 {
        fill: #0d3d39;
      }
    </style>
  </defs>
  <g>
    <path class="st1" d="M12.1,53.3c-7.6-.2-11.4-4.6-11.4-13.1s3.8-12.8,11.4-12.8c7.9,0,11.7,4.9,11.2,14.7H7.2c.2,3.8,1.9,5.8,5,5.8s2.8-.6,4.1-1.8c.6-.6,1.3-.9,2.1-.9h4.6c-1.4,5.3-4.8,8.2-10.9,8.2ZM7.3,37.5h9.4c-.4-3.3-1.9-5-4.6-5s-4.3,1.7-4.8,5Z"/>
    <path class="st1" d="M51.1,27.7l-8.8,25h-6.7l-8.8-25h7l5.1,17.5,4.4-15.3c.5-1.5,1.5-2.2,3.1-2.2h4.9Z"/>
    <path class="st1" d="M65.6,53.3c-7.6-.2-11.4-4.6-11.4-13.1s3.8-12.8,11.4-12.8c7.9,0,11.7,4.9,11.2,14.7h-16.2c.2,3.8,1.9,5.8,5,5.8s2.8-.6,4.1-1.8c.6-.6,1.3-.9,2.1-.9h4.6c-1.4,5.3-4.8,8.2-10.9,8.2ZM60.8,37.5h9.4c-.4-3.3-1.9-5-4.6-5s-4.3,1.7-4.8,5Z"/>
    <path class="st1" d="M98.9,52.7c-2.1-.1-3.1-1.1-3.1-3.1v-12.9c-.1-2.6-1.6-3.9-4.4-3.9s-4.2,1.3-4.3,3.9v16h-6.4v-14.7c0-7.1,3.6-10.7,10.7-10.7s10.6,3.5,10.6,10.7v14.7h-3.2Z"/>
    <path class="st1" d="M112.8,32.2h-.7v13.9c0,1,.6,1.6,1.8,1.6h1.9v4.8c-2,.2-4.3.2-6.6,0s-3.5-1.7-3.5-4.5v-27.3h3.3c1.7,0,3,1.5,3,3.2v4h3.8v1.4c0,1.8-1.4,3.1-3.1,3.1Z"/>
    <path class="st1" d="M130.5,48.2c2.6,0,4-.8,4-2.4s-2.2-2.3-6.5-3.1c-5.5-1-8.4-3.5-8.4-7.4,0-5.4,4.3-7.9,10-8,3.2,0,5.8.7,7.7,2.1,1.8,1.5,2.8,3.5,3,6.1h-4c-1.5,0-2.4-.6-2.8-1.6-.4-1.1-1.7-1.7-3.8-1.7s-3.7.7-3.7,1.9,1.6,2.3,4.9,2.9c4.3.9,7,1.9,8.4,3.2,1.2,1.2,1.8,2.7,1.8,4.4,0,6.1-4.8,8.4-11.4,8.4s-6.1-.8-7.9-2.2c-1.9-1.4-2.8-3.6-2.8-6.5h6.4c.1,2.7,2.1,3.7,5.2,3.7Z"/>
    <path class="st1" d="M151,59.4c0,2.1-1,3.1-3.1,3.1h-3.2v-23.9c.3-7.5,4.2-11.2,11.7-11.2s11.6,4.2,11.6,12.6-3.3,12.9-10,13.1c-3.1,0-5.5-1.3-7.1-3.9v10.1ZM156.3,47.5c3.4,0,5.2-2.4,5.3-7.2,0-5.1-1.8-7.6-5.4-7.6s-5.3,2.5-5.2,7.6c.2,4.8,1.9,7.2,5.3,7.2Z"/>
    <path class="st1" d="M183.6,32.9c-3.7,0-5.3,3.1-5.3,7v12.8h-6.3V20.5h3.2c2.1,0,3.1,1.1,3.1,3.2v7.5c3.2-3.7,7.1-4.7,11.8-3.1,3.5,1.3,5.2,4.6,5,10.1v14.5h-6.2v-12.8c0-4.2-1.6-7-5.2-7Z"/>
    <path class="st1" d="M210.3,53.3c-7.6-.2-11.4-4.6-11.4-13.1s3.8-12.8,11.4-12.8c7.9,0,11.7,4.9,11.2,14.7h-16.2c.2,3.8,1.9,5.8,5,5.8s2.8-.6,4.1-1.8c.6-.6,1.3-.9,2.1-.9h4.6c-1.4,5.3-4.8,8.2-10.9,8.2ZM205.6,37.5h9.4c-.4-3.3-1.9-5-4.6-5s-4.3,1.7-4.8,5Z"/>
    <path class="st1" d="M225.5,39.8c.2-8.1,4.5-12.1,12.9-12.1h.9v6.5h-2.1c-3.5,0-5.3,1.8-5.3,5.5v13h-6.4v-12.9Z"/>
    <path class="st1" d="M254.3,53.3c-7.6-.2-11.4-4.6-11.4-13.1s3.8-12.8,11.4-12.8c7.9,0,11.7,4.9,11.2,14.7h-16.2c.2,3.8,1.9,5.8,5,5.8s2.8-.6,4.1-1.8c.6-.6,1.3-.9,2.1-.9h4.6c-1.4,5.3-4.8,8.2-10.9,8.2ZM249.6,37.5h9.4c-.4-3.3-1.9-5-4.6-5s-4.3,1.7-4.8,5Z"/>
  </g>
  <g>
    <path class="st2" d="M313.7,2.3l-21.7,31.5c-1.5-3.1-4.3-5.5-7.7-6.5l15-22.2c1-1.9,2.5-2.8,4.7-2.8h9.8Z"/>
    <path class="st2" d="M277.4,27.4c-3.4,1-6.2,3.5-7.7,6.7l-8.8-14.1h10.3c1.2,0,2.3.7,3,1.7l3.2,5.7Z"/>
    <path class="st2" d="M279.6,51.2l-5.1,9c-.8,1.4-2.2,2.2-3.8,2.2h-10.5l10.6-16.7c2,3,5.2,5,8.9,5.4Z"/>
    <path class="st2" d="M301.3,62.5h-8.1c-2.9,0-5.6-1.6-7.1-4.1l-4-7.1c3.5-.4,6.6-2.2,8.6-4.9l10.5,16.2Z"/>
  </g>
  <g>
    <path class="st0" d="M280.9,35.2c-2.3,0-4.1,1.8-4.1,4.1s1.8,4.1,4.1,4.1,4.1-1.8,4.1-4.1-1.8-4.1-4.1-4.1Z"/>
    <path class="st0" d="M280.9,29.2c-5.5,0-10,4.5-10,10s4.5,10,10,10,10-4.5,10-10-4.5-10-10-10ZM273.9,39.2c0-3.1,2-5.8,4.9-6.7.7-.2,1.4-.3,2.2-.3,2.8,0,5.2,1.6,6.4,3.9,0,0,0,.1,0,.2,0,0,0,.2.1.3.3.8.5,1.8.5,2.7,0,3.9-3.2,7.1-7.1,7.1s-7.1-3.2-7.1-7.1Z"/>
  </g>
</svg>