<?xml version="1.0" encoding="UTF-8"?>
<svg id="Layer_2" xmlns="http://www.w3.org/2000/svg" version="1.1" viewBox="0 0 223.7 59.1">
  <!-- Generator: Adobe Illustrator 30.1.0, SVG Export Plug-In . SVG Version: 2.1.1 Build 136)  -->
  <defs>
    <style>
      .st0 {
        fill: #b3d237;
      }

      .st1 {
        fill: #fff;
      }

      .st2 {
        fill: #0d3d39;
      }
    </style>
  </defs>
  <g>
    <path class="st1" d="M8.1,36.4C2.7,36.2,0,33,0,27s2.7-9.1,8.2-9.2c5.7,0,8.4,3.5,8,10.5H4.6c.2,2.7,1.4,4.1,3.6,4.1s2-.4,2.9-1.3c.4-.4.9-.6,1.5-.6h3.3c-1,3.8-3.4,5.9-7.8,5.9ZM4.7,25.1h6.7c-.3-2.4-1.4-3.6-3.3-3.6s-3.1,1.2-3.4,3.6Z"/>
    <path class="st1" d="M36,18.1l-6.3,17.9h-4.8l-6.3-17.9h5l3.6,12.5,3.1-11c.3-1,1.1-1.6,2.2-1.6h3.5Z"/>
    <path class="st1" d="M46.4,36.4c-5.4-.2-8.1-3.3-8.1-9.4s2.7-9.1,8.2-9.2c5.7,0,8.4,3.5,8,10.5h-11.6c.2,2.7,1.4,4.1,3.6,4.1s2-.4,2.9-1.3c.4-.4.9-.6,1.5-.6h3.3c-1,3.8-3.4,5.9-7.8,5.9ZM42.9,25.1h6.7c-.3-2.4-1.4-3.6-3.3-3.6s-3.1,1.2-3.4,3.6Z"/>
    <path class="st1" d="M70.2,36c-1.5-.1-2.2-.8-2.2-2.2v-9.2c-.1-1.9-1.1-2.8-3.1-2.8s-3,.9-3,2.8v11.4h-4.6v-10.5c0-5.1,2.6-7.6,7.7-7.6s7.6,2.5,7.6,7.6v10.5h-2.3Z"/>
    <path class="st1" d="M80.2,21.3h-.5v9.9c0,.7.4,1.1,1.3,1.1h1.4v3.4c-1.5.1-3,.1-4.7,0s-2.5-1.2-2.5-3.2V13h2.3c1.2,0,2.2,1.1,2.2,2.3v2.8h2.7v1c0,1.3-1,2.2-2.2,2.2Z"/>
    <path class="st1" d="M92.8,32.7c1.9,0,2.8-.5,2.8-1.7s-1.6-1.7-4.6-2.2c-4-.7-6-2.5-6-5.3,0-3.9,3-5.7,7.1-5.7,2.3,0,4.1.5,5.5,1.5,1.3,1,2,2.5,2.1,4.4h-2.8c-1,0-1.7-.4-2-1.1-.3-.8-1.2-1.2-2.7-1.2s-2.6.5-2.6,1.4,1.1,1.6,3.5,2.1c3,.6,5,1.4,6,2.3.8.9,1.3,2,1.3,3.2,0,4.4-3.4,6-8.2,6s-4.4-.5-5.6-1.6c-1.4-1-2-2.6-2-4.6h4.6c.1,2,1.5,2.6,3.7,2.6Z"/>
    <path class="st1" d="M107.4,40.7c0,1.5-.7,2.2-2.2,2.2h-2.3v-17.1c.2-5.3,3-8,8.4-8s8.3,3,8.3,9-2.4,9.2-7.1,9.4c-2.2,0-3.9-.9-5.1-2.8v7.2ZM111.2,32.3c2.4,0,3.7-1.7,3.8-5.2,0-3.6-1.3-5.4-3.9-5.4s-3.8,1.8-3.8,5.4c.1,3.4,1.4,5.2,3.8,5.2Z"/>
    <path class="st1" d="M130.7,21.8c-2.7,0-3.8,2.2-3.8,5v9.2h-4.5V13h2.3c1.5,0,2.2.8,2.2,2.3v5.3c2.3-2.6,5.1-3.4,8.5-2.2,2.5.9,3.7,3.3,3.6,7.2v10.4h-4.5v-9.2c0-3-1.1-5-3.7-5Z"/>
    <path class="st1" d="M149.9,36.4c-5.4-.2-8.1-3.3-8.1-9.4s2.7-9.1,8.2-9.2c5.7,0,8.4,3.5,8,10.5h-11.6c.2,2.7,1.4,4.1,3.6,4.1s2-.4,2.9-1.3c.4-.4.9-.6,1.5-.6h3.3c-1,3.8-3.4,5.9-7.8,5.9ZM146.4,25.1h6.7c-.3-2.4-1.4-3.6-3.3-3.6s-3.1,1.2-3.4,3.6Z"/>
    <path class="st1" d="M160.7,26.7c.1-5.8,3.2-8.7,9.2-8.7h.6v4.7h-1.5c-2.5,0-3.8,1.3-3.8,3.9v9.3h-4.6v-9.2Z"/>
    <path class="st1" d="M181.3,36.4c-5.4-.2-8.1-3.3-8.1-9.4s2.7-9.1,8.2-9.2c5.7,0,8.4,3.5,8,10.5h-11.6c.2,2.7,1.4,4.1,3.6,4.1s2-.4,2.9-1.3c.4-.4.9-.6,1.5-.6h3.3c-1,3.8-3.4,5.9-7.8,5.9ZM177.9,25.1h6.7c-.3-2.4-1.4-3.6-3.3-3.6s-3.1,1.2-3.4,3.6Z"/>
  </g>
  <g>
    <path class="st2" d="M223.7,0l-15.5,22.6c-1.1-2.2-3.1-4-5.5-4.6l10.7-15.9c.7-1.3,1.8-2,3.3-2h7Z"/>
    <path class="st2" d="M197.8,17.9c-2.4.7-4.4,2.5-5.5,4.8l-6.3-10.1h7.4c.9,0,1.7.5,2.1,1.2l2.3,4.1Z"/>
    <path class="st2" d="M199.4,34.9l-3.7,6.5c-.6,1-1.6,1.6-2.7,1.6h-7.5l7.6-11.9c1.4,2.1,3.7,3.6,6.3,3.9Z"/>
    <path class="st2" d="M214.9,43h-5.8c-2.1,0-4-1.1-5-3l-2.8-5.1c2.5-.3,4.7-1.6,6.1-3.5l7.5,11.6Z"/>
  </g>
  <g>
    <path class="st0" d="M108.6,48.5v-4.8h-1.5v-.6h3.7v.6h-1.5v4.8h-.6Z"/>
    <path class="st0" d="M111.4,48.5v-5.7h.6v2.9c.1-.2.3-.4.5-.5.2-.1.4-.2.7-.2.4,0,.7.1.9.3.2.2.3.5.3.9v2.3h-.6v-2c0-.3,0-.6-.2-.8-.1-.2-.4-.2-.7-.2s-.3,0-.5,0-.3.2-.4.3c0,0-.1.2-.2.3s0,.3,0,.6v1.7h-.6Z"/>
    <path class="st0" d="M118.6,46.9h-2.7c0,.4.1.7.3.9.2.2.5.3.8.3s.4,0,.6-.2c.2-.1.3-.3.5-.6l.4.3c-.2.3-.4.5-.6.7-.3.2-.6.2-.9.2-.5,0-.9-.2-1.2-.5-.3-.3-.5-.8-.5-1.3s.2-1,.5-1.3c.3-.3.7-.5,1.2-.5s.9.2,1.2.5c.3.3.4.8.4,1.3h0ZM118,46.4c0-.3-.1-.5-.3-.7s-.4-.2-.7-.2-.5,0-.7.3-.3.4-.3.7h2.1Z"/>
    <path class="st0" d="M121.8,48.5v-5.6l3.9,4.3v-4.1h.6v5.6l-3.9-4.3v4.1h-.6Z"/>
    <path class="st0" d="M130.6,46.9h-2.7c0,.4.1.7.3.9.2.2.5.3.8.3s.4,0,.6-.2c.2-.1.3-.3.5-.6l.4.3c-.2.3-.4.5-.6.7-.3.2-.6.2-.9.2-.5,0-.9-.2-1.2-.5-.3-.3-.5-.8-.5-1.3s.2-1,.5-1.3c.3-.3.7-.5,1.2-.5s.9.2,1.2.5c.3.3.4.8.4,1.3h0ZM130,46.4c0-.3-.1-.5-.3-.7s-.4-.2-.7-.2-.5,0-.7.3-.3.4-.3.7h2.1Z"/>
    <path class="st0" d="M130.9,48.5l1.3-1.7-1.3-1.6h.7l.9,1.2.9-1.2h.7l-1.3,1.6,1.3,1.7h-.7l-.9-1.3-.9,1.3h-.7Z"/>
    <path class="st0" d="M134.8,45.6h-.6v-.5h.6v-1.4h.6v1.4h.6v.5h-.6v2.9h-.6v-2.9Z"/>
    <path class="st0" d="M139,48.5v-5.4h1c.8,0,1.3,0,1.6.1.3,0,.6.2.8.4.3.2.5.5.7.9.2.4.2.8.2,1.3s0,.9-.2,1.3c-.2.4-.4.7-.7.9-.2.2-.5.3-.8.4-.3,0-.8.1-1.4.1h-1.3ZM139.6,47.9h.4c.7,0,1.1,0,1.4,0,.3,0,.5-.2.6-.3.2-.2.4-.4.5-.7.1-.3.2-.6.2-1s0-.7-.2-1c-.1-.3-.3-.5-.5-.7-.2-.1-.4-.2-.6-.3-.3,0-.7,0-1.4,0h-.4v4.2Z"/>
    <path class="st0" d="M144.3,43.5c0-.1,0-.2.1-.3,0,0,.2-.1.3-.1s.2,0,.3.1c0,0,.1.2.1.3s0,.2-.1.3-.2.1-.3.1-.2,0-.3-.1-.1-.2-.1-.3ZM144.4,48.5v-3.4h.6v3.4h-.6Z"/>
    <path class="st0" d="M150.9,48.5v-2c0-.3,0-.6-.2-.8-.1-.2-.3-.2-.6-.2s-.3,0-.4,0-.2.2-.3.3c0,0-.1.2-.1.3,0,.1,0,.3,0,.6v1.7h-.6v-2c0-.3,0-.6-.2-.8-.1-.2-.3-.2-.6-.2s-.3,0-.4,0c-.1,0-.2.2-.3.3,0,0-.1.2-.1.3,0,.1,0,.3,0,.6v1.7h-.6v-3.4h.6v.5c.1-.2.3-.4.5-.5.2-.1.4-.2.7-.2s.5,0,.7.2c.2.1.3.3.4.5.1-.2.3-.4.5-.5.2-.1.4-.2.7-.2.4,0,.7.1.9.3s.3.5.3.9v2.3h-.6Z"/>
    <path class="st0" d="M155.6,46.9h-2.7c0,.4.1.7.3.9.2.2.5.3.8.3s.4,0,.6-.2c.2-.1.3-.3.5-.6l.4.3c-.2.3-.4.5-.6.7-.3.2-.6.2-.9.2-.5,0-.9-.2-1.2-.5-.3-.3-.5-.8-.5-1.3s.2-1,.5-1.3c.3-.3.7-.5,1.2-.5s.9.2,1.2.5c.3.3.4.8.4,1.3h0ZM155,46.4c0-.3-.1-.5-.3-.7s-.4-.2-.7-.2-.5,0-.7.3-.3.4-.3.7h2.1Z"/>
    <path class="st0" d="M156.5,48.5v-3.4h.6v.5c.1-.2.3-.4.5-.5.2-.1.4-.2.7-.2.4,0,.7.1.9.3.2.2.3.5.3.9v2.3h-.6v-2c0-.3,0-.6-.2-.8-.1-.2-.4-.2-.7-.2s-.3,0-.5,0-.3.2-.4.3c0,0-.1.2-.2.3s0,.3,0,.6v1.7h-.6Z"/>
    <path class="st0" d="M160.3,47.9l.5-.3c0,.2.2.3.4.4.1,0,.3.1.5.1s.3,0,.5-.1c.1,0,.2-.2.2-.4s0-.2-.1-.3c0,0-.2-.2-.4-.2h0c-.8-.3-1.2-.7-1.2-1.1s.1-.5.3-.7c.2-.2.5-.3.9-.3s.5,0,.8.2c.2.1.4.3.4.5l-.5.3c0-.2-.2-.3-.3-.4-.1,0-.3-.1-.5-.1s-.3,0-.4.1-.2.2-.2.4.2.4.7.5c0,0,.1,0,.2,0,.4.1.6.3.8.4s.2.4.2.6-.1.6-.3.8-.5.3-.9.3-.6,0-.8-.2c-.2-.1-.4-.3-.5-.5Z"/>
    <path class="st0" d="M163.6,43.5c0-.1,0-.2.1-.3,0,0,.2-.1.3-.1s.2,0,.3.1c0,0,.1.2.1.3s0,.2-.1.3-.2.1-.3.1-.2,0-.3-.1c0,0-.1-.2-.1-.3ZM163.8,48.5v-3.4h.6v3.4h-.6Z"/>
    <path class="st0" d="M165.3,46.8c0-.2,0-.5.1-.7s.2-.4.4-.6.4-.3.6-.4c.2,0,.5-.1.7-.1s.5,0,.7.1c.2,0,.4.2.6.4.2.2.3.4.4.6,0,.2.1.5.1.7s0,.5-.1.7c0,.2-.2.4-.4.6-.2.2-.4.3-.6.4-.2,0-.5.1-.7.1s-.5,0-.7-.1c-.2,0-.4-.2-.6-.4-.2-.2-.3-.4-.4-.6,0-.2-.1-.4-.1-.7ZM165.9,46.8c0,.4.1.7.4.9.2.2.5.4.9.4s.6-.1.9-.4c.2-.2.4-.5.4-.9s-.1-.7-.4-.9c-.2-.2-.5-.4-.9-.4s-.6.1-.9.4c-.2.2-.4.5-.4.9Z"/>
    <path class="st0" d="M169.9,48.5v-3.4h.6v.5c.1-.2.3-.4.5-.5.2-.1.4-.2.7-.2.4,0,.7.1.9.3.2.2.3.5.3.9v2.3h-.6v-2c0-.3,0-.6-.2-.8-.1-.2-.4-.2-.7-.2s-.3,0-.5,0-.3.2-.4.3c0,0-.1.2-.2.3s0,.3,0,.6v1.7h-.6Z"/>
    <path class="st0" d="M176.2,43.5c0-.1,0-.2.1-.3,0,0,.2-.1.3-.1s.2,0,.3.1c0,0,.1.2.1.3s0,.2-.1.3-.2.1-.3.1-.2,0-.3-.1c0,0-.1-.2-.1-.3ZM176.3,48.5v-3.4h.6v3.4h-.6Z"/>
    <path class="st0" d="M178.1,48.5v-3.4h.6v.5c.1-.2.3-.4.5-.5.2-.1.4-.2.7-.2.4,0,.7.1.9.3.2.2.3.5.3.9v2.3h-.6v-2c0-.3,0-.6-.2-.8-.1-.2-.4-.2-.7-.2s-.3,0-.5,0c-.1,0-.3.2-.4.3,0,0-.1.2-.2.3s0,.3,0,.6v1.7h-.6Z"/>
    <path class="st0" d="M107.7,57.5v-5.4h2.8v.6h-2.2v1.5h2.2v.6h-2.2v2.1h2.2v.6h-2.8Z"/>
    <path class="st0" d="M112.7,57.8l-1.7-3.6h.6l1,2.4,1-2.4h.6l-1.7,3.6Z"/>
    <path class="st0" d="M117.9,55.9h-2.7c0,.4.1.7.3.9.2.2.5.3.8.3s.4,0,.6-.2.3-.3.5-.6l.4.3c-.2.3-.4.5-.6.7-.3.2-.6.2-.9.2-.5,0-.9-.2-1.2-.5-.3-.3-.5-.8-.5-1.3s.2-1,.5-1.3c.3-.3.7-.5,1.2-.5s.9.2,1.2.5.4.8.4,1.3h0ZM117.3,55.5c0-.3-.1-.5-.3-.7-.2-.2-.4-.2-.7-.2s-.5,0-.7.3-.3.4-.3.7h2.1Z"/>
    <path class="st0" d="M118.8,57.5v-3.4h.6v.5c.1-.2.3-.4.5-.5.2-.1.4-.2.7-.2.4,0,.7.1.9.3.2.2.3.5.3.9v2.3h-.6v-2c0-.3,0-.6-.2-.8-.1-.2-.4-.2-.7-.2s-.3,0-.5,0-.3.2-.4.3c0,0-.1.2-.2.3s0,.3,0,.6v1.7h-.6Z"/>
    <path class="st0" d="M123.1,54.6h-.6v-.5h.6v-1.4h.6v1.4h.6v.5h-.6v2.9h-.6v-2.9Z"/>
    <path class="st0" d="M127.2,57.5v-5.4h2.8v.6h-2.2v1.5h2.2v.6h-2.2v2.1h2.2v.6h-2.8Z"/>
    <path class="st0" d="M130.5,57.5l1.3-1.7-1.3-1.6h.7l.9,1.2.9-1.2h.7l-1.3,1.6,1.3,1.7h-.7l-.9-1.3-.9,1.3h-.7Z"/>
    <path class="st0" d="M134.4,59.2v-5h.5v.6c.1-.2.3-.4.5-.6.2-.1.5-.2.7-.2.5,0,.9.2,1.2.5.3.3.4.8.4,1.3s-.1,1-.4,1.3c-.3.3-.7.5-1.2.5s-.5,0-.7-.2-.4-.3-.5-.6v2.3h-.6ZM134.9,55.9c0,.4.1.7.3.9.2.2.5.3.8.3s.6-.1.8-.3c.2-.2.3-.5.3-.9s0-.7-.3-1c-.2-.2-.5-.4-.8-.4s-.6.1-.8.3c-.2.2-.3.5-.3.9Z"/>
    <path class="st0" d="M141.7,55.9h-2.7c0,.4.1.7.3.9.2.2.5.3.8.3s.4,0,.6-.2.3-.3.5-.6l.4.3c-.2.3-.4.5-.6.7-.3.2-.6.2-.9.2-.5,0-.9-.2-1.2-.5-.3-.3-.5-.8-.5-1.3s.2-1,.5-1.3c.3-.3.7-.5,1.2-.5s.9.2,1.2.5.4.8.4,1.3h0ZM141.1,55.5c0-.3-.1-.5-.3-.7-.2-.2-.4-.2-.7-.2s-.5,0-.7.3-.3.4-.3.7h2.1Z"/>
    <path class="st0" d="M142.6,57.5v-3.4h.5v.7c.2-.3.3-.5.5-.6.2-.1.4-.2.6-.2s.1,0,.2,0c0,0,.1,0,.2,0l-.2.5c0,0-.1,0-.2,0,0,0-.1,0-.2,0-.3,0-.5.1-.7.3-.2.2-.2.6-.2,1v1.6h-.6Z"/>
    <path class="st0" d="M145.1,52.5c0-.1,0-.2.1-.3,0,0,.2-.1.3-.1s.2,0,.3.1c0,0,.1.2.1.3s0,.2-.1.3-.2.1-.3.1-.2,0-.3-.1c0,0-.1-.2-.1-.3ZM145.2,57.5v-3.4h.6v3.4h-.6Z"/>
    <path class="st0" d="M150,55.9h-2.7c0,.4.1.7.3.9.2.2.5.3.8.3s.4,0,.6-.2.3-.3.5-.6l.4.3c-.2.3-.4.5-.6.7-.3.2-.6.2-.9.2-.5,0-.9-.2-1.2-.5-.3-.3-.5-.8-.5-1.3s.2-1,.5-1.3c.3-.3.7-.5,1.2-.5s.9.2,1.2.5.4.8.4,1.3h0ZM149.4,55.5c0-.3-.1-.5-.3-.7-.2-.2-.4-.2-.7-.2s-.5,0-.7.3-.3.4-.3.7h2.1Z"/>
    <path class="st0" d="M150.9,57.5v-3.4h.6v.5c.1-.2.3-.4.5-.5.2-.1.4-.2.7-.2.4,0,.7.1.9.3.2.2.3.5.3.9v2.3h-.6v-2c0-.3,0-.6-.2-.8-.1-.2-.4-.2-.7-.2s-.3,0-.5,0-.3.2-.4.3c0,0-.1.2-.2.3s0,.3,0,.6v1.7h-.6Z"/>
    <path class="st0" d="M157.7,56.7v.7c-.2,0-.3.2-.5.2-.2,0-.4,0-.6,0-.5,0-.9-.2-1.3-.5-.3-.3-.5-.8-.5-1.3s.2-1,.5-1.3c.3-.3.7-.5,1.3-.5s.4,0,.5,0,.3,0,.5.2v.6c-.1,0-.3-.2-.5-.2s-.3,0-.5,0c-.4,0-.7.1-.9.4s-.3.6-.3.9.1.6.3.9c.2.2.5.3.9.3s.3,0,.5,0,.3-.2.5-.3Z"/>
    <path class="st0" d="M161.5,55.9h-2.7c0,.4.1.7.3.9.2.2.5.3.8.3s.4,0,.6-.2c.2-.1.3-.3.5-.6l.4.3c-.2.3-.4.5-.6.7-.3.2-.6.2-.9.2-.5,0-.9-.2-1.2-.5-.3-.3-.5-.8-.5-1.3s.2-1,.5-1.3c.3-.3.7-.5,1.2-.5s.9.2,1.2.5c.3.3.4.8.4,1.3h0ZM160.9,55.5c0-.3-.1-.5-.3-.7s-.4-.2-.7-.2-.5,0-.7.3-.3.4-.3.7h2.1Z"/>
    <path class="st0" d="M162,57l.5-.3c0,.2.2.3.4.4.1,0,.3.1.5.1s.3,0,.5-.1c.1,0,.2-.2.2-.4s0-.2-.1-.3c0,0-.2-.2-.4-.2h0c-.8-.3-1.2-.7-1.2-1.1s.1-.5.3-.7c.2-.2.5-.3.9-.3s.5,0,.8.2c.2.1.4.3.4.5l-.5.3c0-.2-.2-.3-.3-.4-.1,0-.3-.1-.5-.1s-.3,0-.4.1-.2.2-.2.4.2.4.7.5c0,0,.1,0,.2,0,.4.1.6.3.8.4s.2.4.2.6-.1.6-.3.8-.5.3-.9.3-.6,0-.8-.2c-.2-.1-.4-.3-.5-.5Z"/>
  </g>
  <g>
    <path class="st0" d="M200.3,23.4c-1.6,0-2.9,1.3-2.9,2.9s1.3,2.9,2.9,2.9,2.9-1.3,2.9-2.9-1.3-2.9-2.9-2.9Z"/>
    <path class="st0" d="M200.3,19.1c-3.9,0-7.1,3.2-7.1,7.1s3.2,7.1,7.1,7.1,7.1-3.2,7.1-7.1-3.2-7.1-7.1-7.1ZM195.3,26.3c0-2.2,1.5-4.1,3.5-4.8.5-.2,1-.2,1.5-.2,2,0,3.7,1.1,4.6,2.8,0,0,0,0,0,.1,0,0,0,.1,0,.2.2.6.4,1.3.4,1.9,0,2.8-2.3,5.1-5.1,5.1s-5.1-2.3-5.1-5.1Z"/>
  </g>
</svg>