<svg xmlns="http://www.w3.org/2000/svg" viewBox="0 0 71.6 71.6"><defs><style>.cls-1{fill:#fff;}.cls-2{fill:#273f3c;}.cls-3{fill:#bcd249;}</style></defs><g id="Layer_2" data-name="Layer 2"><g id="Layer_1-2" data-name="Layer 1"><circle class="cls-1" cx="35.8" cy="35.8" r="35.8"/><path class="cls-2" d="M46.87,30.59,60.73,10.47a35.55,35.55,0,0,0-8.28-6.09L39.2,24.1A12.18,12.18,0,0,1,46.87,30.59Z"/><path class="cls-2" d="M32.39,24.13l-3.22-5.68a3.4,3.4,0,0,0-3-1.71H15.91L24.73,30.8A12.23,12.23,0,0,1,32.39,24.13Z"/><path class="cls-2" d="M25.67,42.56,15.1,59.22H25.65A4.35,4.35,0,0,0,29.44,57l5.11-9A12.19,12.19,0,0,1,25.67,42.56Z"/><path class="cls-2" d="M37.08,48l4,7.1a8.1,8.1,0,0,0,7.06,4.14h8.11L45.68,43.06A12.18,12.18,0,0,1,37.08,48Z"/><path class="cls-3" d="M35.75,31.82a4.11,4.11,0,1,0,4.1,4.1A4.11,4.11,0,0,0,35.75,31.82Z"/><path class="cls-3" d="M35.8,25.82a10,10,0,1,0,10,10A10,10,0,0,0,35.8,25.82Zm-7.07,10a7.07,7.07,0,0,1,4.86-6.71,7,7,0,0,1,2.16-.34,7.18,7.18,0,0,1,6.37,3.89l.07.15.14.29a7.07,7.07,0,1,1-13.6,2.72Z"/></g></g></svg>