<?xml version="1.0" encoding="UTF-8"?>
<svg id="Layer_1" xmlns="http://www.w3.org/2000/svg" version="1.1" viewBox="0 0 1000 1000">
  <!-- Generator: Adobe Illustrator 29.5.1, SVG Export Plug-In . SVG Version: 2.1.0 Build 141)  -->
  <defs>
    <style>
      .st0 {
        fill: #231f20;
      }

      .st1 {
        fill: #00aeef;
      }
    </style>
  </defs>
  <g>
    <path class="st0" d="M237.62,440.45h-21.2v-20.36c0-1.58-1.28-2.85-2.85-2.85h-15.31c-1.58,0-2.85,1.28-2.85,2.85v20.36h-9.09c-1.58,0-2.85,1.28-2.85,2.85v12.62c0,1.58,1.28,2.85,2.85,2.85h9.09v51.49c0,9.76,2.46,16.98,7.31,21.45,4.78,4.41,11.89,6.64,21.11,6.64h13.8c1.58,0,2.85-1.28,2.85-2.85v-12.95c0-1.58-1.28-2.85-2.85-2.85h-11.27c-4.88,0-7.01-1.07-7.94-1.97-1.3-1.26-1.99-3.84-1.99-7.46v-51.49h21.2c1.58,0,2.85-1.28,2.85-2.85v-12.62c0-1.58-1.28-2.85-2.85-2.85Z"/>
    <path class="st0" d="M304.58,438.77c-7.66,0-14.28,1.6-19.69,4.76,0,0,0,0,0,0-2.71,1.59-5.13,3.5-7.23,5.74v-5.96c0-1.58-1.28-2.85-2.85-2.85h-15.31c-1.58,0-2.85,1.28-2.85,2.85v92.2c0,1.58,1.28,2.85,2.85,2.85h15.31c1.58,0,2.85-1.28,2.85-2.85v-50.14c0-17.11,7.27-25.07,22.89-25.07h4.04c1.58,0,2.85-1.28,2.85-2.85v-15.81c0-1.58-1.28-2.85-2.85-2.85Z"/>
    <path class="st0" d="M333.51,404.61c-3.69,0-6.86,1.3-9.42,3.86-2.56,2.56-3.86,5.73-3.86,9.42s1.3,6.86,3.86,9.42c0,0,0,0,0,0,2.56,2.56,5.73,3.86,9.42,3.86s6.68-1.31,9.2-3.89c2.49-2.56,3.75-5.72,3.75-9.39s-1.26-6.83-3.75-9.39c-2.51-2.58-5.61-3.89-9.2-3.89Z"/>
    <rect class="st0" x="322.75" y="440.45" width="21.02" height="97.9" rx="2.85" ry="2.85"/>
    <path class="st0" d="M458.18,440.45h-15.48c-1.58,0-2.85,1.28-2.85,2.85v8.24c-2.55-2.64-5.59-4.98-9.09-7.01,0,0,0,0,0,0-6.42-3.72-13.95-5.6-22.38-5.6s-16.65,2.11-23.74,6.28c-7.1,4.18-12.76,10.13-16.8,17.68-4.02,7.51-6.06,16.31-6.06,26.16s2.03,18.56,6.04,26.22c4.04,7.72,9.68,13.82,16.78,18.11,7.09,4.29,15.09,6.47,23.77,6.47s15.97-1.95,22.34-5.79c3.5-2.11,6.55-4.55,9.13-7.27v10.72c0,8.7-2.4,15.48-7.14,20.18-4.82,4.77-10.9,7.08-18.6,7.08-6.81,0-12.68-1.57-17.46-4.67-4.73-3.07-7.76-6.99-9.25-11.97-.36-1.21-1.47-2.03-2.73-2.03h-15.14c-.83,0-1.62.36-2.16.99-.54.63-.78,1.46-.66,2.28,1.57,10.62,6.77,19.14,15.47,25.3,8.53,6.04,19.27,9.11,31.93,9.11,9.31,0,17.61-1.99,24.69-5.91,7.12-3.95,12.68-9.51,16.51-16.52,3.8-6.96,5.73-14.97,5.73-23.83v-94.21c0-1.58-1.28-2.85-2.85-2.85ZM439.84,489.23c0,6.44-1.3,12.13-3.87,16.9-2.54,4.72-5.99,8.36-10.27,10.82-4.3,2.48-9.12,3.74-14.3,3.74s-9.96-1.26-14.21-3.73c-4.23-2.47-7.66-6.11-10.2-10.83-2.57-4.77-3.87-10.51-3.87-17.07s1.3-12.1,3.86-16.81c2.53-4.66,5.96-8.25,10.18-10.66,4.25-2.43,9.04-3.66,14.23-3.66s10,1.26,14.3,3.74c4.28,2.47,7.74,6.09,10.28,10.75,2.56,4.72,3.86,10.37,3.86,16.81Z"/>
    <path class="st0" d="M575.27,440.45h-15.48c-1.58,0-2.85,1.28-2.85,2.85v8.24c-2.55-2.64-5.59-4.98-9.09-7.01,0,0,0,0,0,0-6.42-3.72-13.95-5.6-22.38-5.6s-16.65,2.11-23.74,6.28c-7.1,4.18-12.76,10.13-16.8,17.68-4.02,7.51-6.06,16.31-6.06,26.16s2.03,18.56,6.05,26.22c4.04,7.72,9.68,13.82,16.78,18.11,7.09,4.29,15.09,6.47,23.77,6.47s15.97-1.95,22.34-5.79c3.5-2.11,6.55-4.55,9.13-7.27v10.72c0,8.7-2.4,15.49-7.14,20.18-4.82,4.77-10.9,7.08-18.6,7.08-6.81,0-12.68-1.57-17.46-4.67-4.73-3.07-7.76-6.99-9.25-11.97-.36-1.21-1.47-2.03-2.73-2.03h-15.14c-.83,0-1.62.36-2.16.99-.54.63-.78,1.46-.66,2.28,1.57,10.62,6.77,19.14,15.47,25.3,8.53,6.04,19.27,9.11,31.93,9.11,9.31,0,17.61-1.99,24.69-5.91,7.12-3.95,12.68-9.51,16.51-16.52,3.8-6.96,5.73-14.98,5.73-23.83v-94.21c0-1.58-1.28-2.85-2.85-2.85ZM556.94,489.23c0,6.44-1.3,12.13-3.87,16.9-2.54,4.72-5.99,8.36-10.27,10.82-4.3,2.48-9.12,3.74-14.3,3.74s-9.96-1.26-14.21-3.73c-4.23-2.47-7.66-6.11-10.2-10.83-2.56-4.77-3.87-10.51-3.87-17.07s1.3-12.1,3.86-16.81c2.53-4.66,5.96-8.25,10.18-10.66,4.25-2.43,9.04-3.66,14.23-3.66s10,1.26,14.3,3.74c4.28,2.47,7.74,6.09,10.27,10.75,2.56,4.72,3.86,10.37,3.86,16.81Z"/>
    <path class="st0" d="M669.04,445.02c-7.14-4.04-15.42-6.09-24.62-6.09s-17.9,2.08-25.2,6.17c-7.35,4.12-13.14,10.09-17.19,17.72-4.02,7.56-6.05,16.45-6.05,26.41s2.1,18.89,6.23,26.51c4.16,7.68,10,13.69,17.33,17.86,7.3,4.16,15.67,6.26,24.88,6.26,11.57,0,21.43-2.99,29.3-8.9,7.88-5.91,13.21-13.7,15.84-23.14.24-.86.06-1.78-.48-2.49-.54-.71-1.38-1.13-2.27-1.13h-16.49c-1.22,0-2.3.77-2.7,1.92-1.61,4.62-4.31,8.21-8.27,10.96-3.92,2.73-8.95,4.11-14.94,4.11-7.42,0-13.53-2.26-18.7-6.92-4.5-4.05-7.16-9.4-8.1-16.31h70.54c1.46,0,2.69-1.11,2.84-2.56.34-3.33.52-6.54.52-9.55,0-8.85-1.96-16.93-5.82-24-3.89-7.12-9.49-12.78-16.66-16.85ZM625.89,464.26c4.94-4.48,10.78-6.66,17.85-6.66,4.91,0,9.44,1,13.46,2.99,3.97,1.96,7.03,4.75,9.35,8.52,1.86,3.04,2.98,6.63,3.33,10.71h-52c1.1-6.56,3.73-11.67,8.02-15.56Z"/>
    <path class="st0" d="M760.16,457.43v-15.81c0-1.58-1.28-2.85-2.85-2.85-7.66,0-14.28,1.6-19.69,4.76,0,0,0,0,0,0-2.71,1.59-5.13,3.5-7.23,5.74v-5.96c0-1.58-1.28-2.85-2.85-2.85h-15.31c-1.58,0-2.85,1.28-2.85,2.85v92.2c0,1.58,1.28,2.85,2.85,2.85h15.31c1.58,0,2.85-1.28,2.85-2.85v-50.14c0-17.11,7.27-25.07,22.89-25.07h4.04c1.58,0,2.85-1.28,2.85-2.85Z"/>
    <path class="st0" d="M875.56,537.14c.53-.76.66-1.74.35-2.61l-42.23-116.59c-.41-1.13-1.48-1.88-2.68-1.88h-17.67c-1.2,0-2.27.75-2.68,1.88l-42.4,116.59c-.32.87-.19,1.85.34,2.61.53.76,1.41,1.22,2.34,1.22h16.15c1.2,0,2.28-.75,2.68-1.88l8.74-24.19h47.14l8.74,24.19c.41,1.13,1.48,1.88,2.68,1.88h16.15c.93,0,1.8-.45,2.34-1.22ZM839.22,494.12h-34.29l17.14-47.9,17.15,47.9Z"/>
    <rect class="st0" x="892.24" y="408.15" width="21.02" height="130.21" rx="2.85" ry="2.85"/>
    <rect class="st0" x="936.99" y="408.15" width="21.02" height="130.21" rx="2.85" ry="2.85"/>
    <polygon class="st0" points="709.52 595.6 713.93 595.6 713.93 577.3 737.05 577.3 737.05 573.54 713.93 573.54 713.93 557.23 738.74 557.23 738.74 553.17 709.52 553.17 709.52 595.6"/>
    <rect class="st0" x="746.46" y="550.14" width="4.42" height="45.46"/>
    <path class="st0" d="M783.25,566.99c-2.49-1.33-5.29-2-8.41-2s-5.8.68-8.31,2.03c-2.51,1.35-4.5,3.22-5.97,5.61-1.47,2.38-2.21,5.05-2.21,8s.74,5.58,2.21,7.88c1.47,2.3,3.45,4.1,5.94,5.39,2.49,1.29,5.27,1.94,8.34,1.94s5.92-.65,8.41-1.94c2.49-1.29,4.46-3.1,5.91-5.42,1.45-2.32,2.18-4.94,2.18-7.85s-.73-5.68-2.18-8.06c-1.45-2.38-3.42-4.24-5.91-5.58ZM785.42,586.6c-1.04,1.8-2.48,3.19-4.32,4.18-1.84.99-3.93,1.48-6.27,1.48s-4.36-.49-6.2-1.48c-1.84-.99-3.27-2.38-4.29-4.18-1.02-1.8-1.53-3.85-1.53-6.15s.52-4.29,1.56-6.09c1.04-1.8,2.48-3.21,4.32-4.24,1.84-1.03,3.88-1.55,6.14-1.55s4.36.52,6.2,1.55c1.84,1.03,3.29,2.45,4.35,4.24,1.06,1.8,1.59,3.83,1.59,6.09s-.52,4.35-1.56,6.15Z"/>
    <polygon class="st0" points="828.67 588.08 818.21 564.69 807.82 588.08 797.76 565.3 793.15 565.3 807.37 596.21 818.15 572.39 828.99 596.21 843.21 565.3 838.6 565.3 828.67 588.08"/>
    <path class="st0" d="M899.34,555.57c-3.27-1.8-6.92-2.7-10.94-2.7s-7.6.9-10.84,2.7c-3.25,1.8-5.81,4.32-7.69,7.58-1.88,3.25-2.82,6.98-2.82,11.18s.98,8.22,2.95,11.45c1.97,3.23,4.59,5.7,7.86,7.39,3.27,1.7,6.79,2.55,10.55,2.55,4.03,0,7.67-.9,10.94-2.7,3.27-1.8,5.83-4.31,7.69-7.55,1.86-3.23,2.79-6.95,2.79-11.15s-.93-7.98-2.79-11.21c-1.86-3.23-4.43-5.75-7.69-7.55ZM903.01,583.54c-1.43,2.67-3.41,4.72-5.94,6.15-2.53,1.43-5.42,2.15-8.67,2.15s-6.02-.74-8.57-2.21c-2.55-1.47-4.55-3.55-5.97-6.21-1.43-2.67-2.14-5.68-2.14-9.03s.71-6.56,2.14-9.24c1.43-2.69,3.41-4.76,5.94-6.21,2.53-1.45,5.4-2.18,8.6-2.18s6.14.73,8.67,2.18c2.53,1.45,4.51,3.53,5.94,6.21,1.43,2.69,2.14,5.77,2.14,9.24s-.71,6.49-2.14,9.15Z"/>
    <path class="st0" d="M935.74,565.05c-2.55,0-5.01.59-7.37,1.76-2.36,1.17-4.38,2.71-6.07,4.61l.19-6.12h-4.61v30.3h4.42v-18.24c0-1.05.55-2.24,1.66-3.58s2.56-2.47,4.38-3.42c1.82-.95,3.77-1.42,5.84-1.42,2.6,0,4.7.77,6.3,2.3,1.6,1.54,2.4,3.54,2.4,6v18.36h4.35v-19.33c0-3.39-1.05-6.11-3.15-8.15-2.1-2.04-4.88-3.06-8.34-3.06Z"/>
    <path class="st0" d="M959.73,590.66c-.63-.59-1.4-.88-2.3-.88s-1.68.29-2.31.88c-.63.59-.94,1.32-.94,2.21s.31,1.57.94,2.15c.63.59,1.4.88,2.31.88s1.68-.29,2.3-.88c.63-.59.94-1.3.94-2.15s-.31-1.63-.94-2.21Z"/>
  </g>
  <g>
    <path class="st1" d="M159.03,440.56h-92.24c-4.57,0-8.28-3.7-8.28-8.26s3.71-8.26,8.28-8.26h92.24c4.57,0,8.28,3.7,8.28,8.26s-3.71,8.26-8.28,8.26Z"/>
    <path class="st1" d="M119.38,464.97H46.88c-4.57,0-8.28-3.7-8.28-8.26s3.71-8.26,8.28-8.26h72.5c4.57,0,8.28,3.7,8.28,8.26s-3.71,8.26-8.28,8.26Z"/>
    <path class="st1" d="M131.54,489.39h-61.76c-4.57,0-8.28-3.7-8.28-8.26s3.71-8.26,8.28-8.26h61.76c4.57,0,8.28,3.7,8.28,8.26s-3.71,8.26-8.28,8.26Z"/>
    <path class="st1" d="M117.07,513.27h-32.66c-4.67,0-8.46-3.7-8.46-8.26s3.79-8.26,8.46-8.26h32.66c4.67,0,8.46,3.7,8.46,8.26s-3.79,8.26-8.46,8.26Z"/>
    <path class="st1" d="M103.07,535.71h-5.73c-4.57,0-8.28-3.7-8.28-8.26s3.71-8.26,8.28-8.26h5.73c4.57,0,8.28,3.7,8.28,8.26s-3.71,8.26-8.28,8.26Z"/>
  </g>
</svg>