<?xml version="1.0" encoding="UTF-8"?>
<svg id="Layer_1" xmlns="http://www.w3.org/2000/svg" version="1.1" viewBox="0 0 1000 432">
  <defs>
    <style>
      .st0 {
        fill: #00aeef;
      }
      .st1 {
        fill: #ffffff;
      }
    </style>
  </defs>
  <g>
    <path class="st1" d="M279.7,166.1h-17.8v-17.1c0-1.3-1.1-2.4-2.4-2.4h-12.9c-1.3,0-2.4,1.1-2.4,2.4v17.1h-7.6c-1.3,0-2.4,1.1-2.4,2.4v10.6c0,1.3,1.1,2.4,2.4,2.4h7.6v43.2c0,8.2,2.1,14.3,6.1,18,4,3.7,10,5.6,17.7,5.6h11.6c1.3,0,2.4-1.1,2.4-2.4v-10.9c0-1.3-1.1-2.4-2.4-2.4h-9.5c-4.1,0-5.9-.9-6.7-1.7-1.1-1.1-1.7-3.2-1.7-6.3v-43.2h17.8c1.3,0,2.4-1.1,2.4-2.4v-10.6c0-1.3-1.1-2.4-2.4-2.4h0Z"/>
    <path class="st1" d="M335.9,164.7c-6.4,0-12,1.3-16.5,4h0c-2.3,1.3-4.3,2.9-6.1,4.8v-5c0-1.3-1.1-2.4-2.4-2.4h-12.9c-1.3,0-2.4,1.1-2.4,2.4v77.4c0,1.3,1.1,2.4,2.4,2.4h12.9c1.3,0,2.4-1.1,2.4-2.4v-42.1c0-14.4,6.1-21,19.2-21h3.4c1.3,0,2.4-1.1,2.4-2.4v-13.3c0-1.3-1.1-2.4-2.4-2.4h0Z"/>
    <path class="st1" d="M360.2,136c-3.1,0-5.8,1.1-7.9,3.2-2.1,2.1-3.2,4.8-3.2,7.9s1.1,5.8,3.2,7.9h0c2.1,2.1,4.8,3.2,7.9,3.2s5.6-1.1,7.7-3.3c2.1-2.1,3.1-4.8,3.1-7.9s-1.1-5.7-3.1-7.9c-2.1-2.2-4.7-3.3-7.7-3.3h0Z"/>
    <rect class="st1" x="351.2" y="166.1" width="17.6" height="82.2" rx="2.9" ry="2.9"/>
    <path class="st1" d="M464.8,166.1h-13c-1.3,0-2.4,1.1-2.4,2.4v6.9c-2.1-2.2-4.7-4.2-7.6-5.9h0c-5.4-3.1-11.7-4.7-18.8-4.7s-14,1.8-19.9,5.3c-6,3.5-10.7,8.5-14.1,14.8-3.4,6.3-5.1,13.7-5.1,22s1.7,15.6,5.1,22c3.4,6.5,8.1,11.6,14.1,15.2,6,3.6,12.7,5.4,20,5.4s13.4-1.6,18.8-4.9c2.9-1.8,5.5-3.8,7.7-6.1v9c0,7.3-2,13-6,16.9-4,4-9.1,5.9-15.6,5.9s-10.6-1.3-14.7-3.9c-4-2.6-6.5-5.9-7.8-10-.3-1-1.2-1.7-2.3-1.7h-12.7c-.7,0-1.4.3-1.8.8s-.7,1.2-.6,1.9c1.3,8.9,5.7,16.1,13,21.2,7.2,5.1,16.2,7.6,26.8,7.6s14.8-1.7,20.7-5c6-3.3,10.6-8,13.9-13.9,3.2-5.8,4.8-12.6,4.8-20v-79.1c0-1.3-1.1-2.4-2.4-2.4h0ZM449.4,207c0,5.4-1.1,10.2-3.2,14.2-2.1,4-5,7-8.6,9.1-3.6,2.1-7.7,3.1-12,3.1s-8.4-1.1-11.9-3.1c-3.6-2.1-6.4-5.1-8.6-9.1-2.2-4-3.2-8.8-3.2-14.3s1.1-10.2,3.2-14.1c2.1-3.9,5-6.9,8.5-8.9,3.6-2,7.6-3.1,11.9-3.1s8.4,1.1,12,3.1c3.6,2.1,6.5,5.1,8.6,9,2.1,4,3.2,8.7,3.2,14.1h0Z"/>
    <path class="st1" d="M563.1,166.1h-13c-1.3,0-2.4,1.1-2.4,2.4v6.9c-2.1-2.2-4.7-4.2-7.6-5.9h0c-5.4-3.1-11.7-4.7-18.8-4.7s-14,1.8-19.9,5.3c-6,3.5-10.7,8.5-14.1,14.8-3.4,6.3-5.1,13.7-5.1,22s1.7,15.6,5.1,22c3.4,6.5,8.1,11.6,14.1,15.2,6,3.6,12.7,5.4,20,5.4s13.4-1.6,18.8-4.9c2.9-1.8,5.5-3.8,7.7-6.1v9c0,7.3-2,13-6,16.9-4,4-9.1,5.9-15.6,5.9s-10.6-1.3-14.7-3.9c-4-2.6-6.5-5.9-7.8-10-.3-1-1.2-1.7-2.3-1.7h-12.7c-.7,0-1.4.3-1.8.8s-.7,1.2-.6,1.9c1.3,8.9,5.7,16.1,13,21.2,7.2,5.1,16.2,7.6,26.8,7.6s14.8-1.7,20.7-5c6-3.3,10.6-8,13.9-13.9,3.2-5.8,4.8-12.6,4.8-20v-79.1c0-1.3-1.1-2.4-2.4-2.4h0ZM547.7,207c0,5.4-1.1,10.2-3.2,14.2-2.1,4-5,7-8.6,9.1-3.6,2.1-7.7,3.1-12,3.1s-8.4-1.1-11.9-3.1c-3.6-2.1-6.4-5.1-8.6-9.1-2.1-4-3.2-8.8-3.2-14.3s1.1-10.2,3.2-14.1c2.1-3.9,5-6.9,8.5-8.9,3.6-2,7.6-3.1,11.9-3.1s8.4,1.1,12,3.1c3.6,2.1,6.5,5.1,8.6,9,2.1,4,3.2,8.7,3.2,14.1h0Z"/>
    <path class="st1" d="M641.8,169.9c-6-3.4-12.9-5.1-20.7-5.1s-15,1.7-21.2,5.2c-6.2,3.5-11,8.5-14.4,14.9-3.4,6.3-5.1,13.8-5.1,22.2s1.8,15.9,5.2,22.3c3.5,6.4,8.4,11.5,14.5,15,6.1,3.5,13.2,5.3,20.9,5.3s18-2.5,24.6-7.5c6.6-5,11.1-11.5,13.3-19.4.2-.7,0-1.5-.4-2.1s-1.2-.9-1.9-.9h-13.8c-1,0-1.9.6-2.3,1.6-1.4,3.9-3.6,6.9-6.9,9.2-3.3,2.3-7.5,3.4-12.5,3.4s-11.4-1.9-15.7-5.8c-3.8-3.4-6-7.9-6.8-13.7h59.2c1.2,0,2.3-.9,2.4-2.1.3-2.8.4-5.5.4-8,0-7.4-1.6-14.2-4.9-20.1-3.3-6-8-10.7-14-14.1h0ZM605.6,186.1c4.1-3.8,9-5.6,15-5.6s7.9.8,11.3,2.5c3.3,1.6,5.9,4,7.8,7.2,1.6,2.6,2.5,5.6,2.8,9h-43.6c.9-5.5,3.1-9.8,6.7-13.1h0Z"/>
    <path class="st1" d="M718.3,180.3v-13.3c0-1.3-1.1-2.4-2.4-2.4-6.4,0-12,1.3-16.5,4h0c-2.3,1.3-4.3,2.9-6.1,4.8v-5c0-1.3-1.1-2.4-2.4-2.4h-12.9c-1.3,0-2.4,1.1-2.4,2.4v77.4c0,1.3,1.1,2.4,2.4,2.4h12.9c1.3,0,2.4-1.1,2.4-2.4v-42.1c0-14.4,6.1-21,19.2-21h3.4c1.3,0,2.4-1.1,2.4-2.4h0Z"/>
    <path class="st1" d="M815.2,247.2c.4-.6.6-1.5.3-2.2l-35.4-97.9c-.3-.9-1.2-1.6-2.2-1.6h-14.8c-1,0-1.9.6-2.2,1.6l-35.6,97.9c-.3.7-.2,1.6.3,2.2s1.2,1,2,1h13.6c1,0,1.9-.6,2.2-1.6l7.3-20.3h39.6l7.3,20.3c.3.9,1.2,1.6,2.2,1.6h13.6c.8,0,1.5-.4,2-1h0ZM784.7,211.1h-28.8l14.4-40.2,14.4,40.2h0Z"/>
    <rect class="st1" x="829.2" y="139" width="17.6" height="109.3" rx="2.9" ry="2.9"/>
    <rect class="st1" x="866.7" y="139" width="17.6" height="109.3" rx="2.9" ry="2.9"/>
    <polygon class="st1" points="675.8 296.3 679.5 296.3 679.5 280.9 698.9 280.9 698.9 277.8 679.5 277.8 679.5 264.1 700.3 264.1 700.3 260.7 675.8 260.7 675.8 296.3"/>
    <rect class="st1" x="706.8" y="258.2" width="3.7" height="38.2"/>
    <path class="st1" d="M737.7,272.3c-2.1-1.1-4.4-1.7-7.1-1.7s-4.9.6-7,1.7c-2.1,1.1-3.8,2.7-5,4.7-1.2,2-1.9,4.2-1.9,6.7s.6,4.7,1.9,6.6c1.2,1.9,2.9,3.4,5,4.5,2.1,1.1,4.4,1.6,7,1.6s5-.5,7.1-1.6,3.7-2.6,5-4.5c1.2-1.9,1.8-4.1,1.8-6.6s-.6-4.8-1.8-6.8-2.9-3.6-5-4.7h0ZM739.5,288.8c-.9,1.5-2.1,2.7-3.6,3.5s-3.3,1.2-5.3,1.2-3.7-.4-5.2-1.2-2.7-2-3.6-3.5c-.9-1.5-1.3-3.2-1.3-5.2s.4-3.6,1.3-5.1c.9-1.5,2.1-2.7,3.6-3.6,1.5-.9,3.3-1.3,5.2-1.3s3.7.4,5.2,1.3c1.5.9,2.8,2.1,3.7,3.6.9,1.5,1.3,3.2,1.3,5.1s-.4,3.7-1.3,5.2h0Z"/>
    <polygon class="st1" points="775.8 290 767 270.4 758.3 290 749.9 270.9 746 270.9 757.9 296.8 767 276.8 776.1 296.8 788 270.9 784.1 270.9 775.8 290"/>
    <path class="st1" d="M835.1,262.7c-2.7-1.5-5.8-2.3-9.2-2.3s-6.4.8-9.1,2.3c-2.7,1.5-4.9,3.6-6.5,6.4-1.6,2.7-2.4,5.9-2.4,9.4s.8,6.9,2.5,9.6c1.7,2.7,3.9,4.8,6.6,6.2,2.7,1.4,5.7,2.1,8.9,2.1s6.4-.8,9.2-2.3,4.9-3.6,6.5-6.3c1.6-2.7,2.3-5.8,2.3-9.4s-.8-6.7-2.3-9.4c-1.6-2.7-3.7-4.8-6.5-6.3h0ZM838.2,286.2c-1.2,2.2-2.9,4-5,5.2-2.1,1.2-4.5,1.8-7.3,1.8s-5.1-.6-7.2-1.9c-2.1-1.2-3.8-3-5-5.2-1.2-2.2-1.8-4.8-1.8-7.6s.6-5.5,1.8-7.8c1.2-2.3,2.9-4,5-5.2s4.5-1.8,7.2-1.8,5.2.6,7.3,1.8c2.1,1.2,3.8,3,5,5.2,1.2,2.3,1.8,4.8,1.8,7.8s-.6,5.4-1.8,7.7Z"/>
    <path class="st1" d="M865.7,270.7c-2.1,0-4.2.5-6.2,1.5s-3.7,2.3-5.1,3.9l.2-5.1h-3.9v25.4h3.7v-15.3c0-.9.5-1.9,1.4-3s2.1-2.1,3.7-2.9,3.2-1.2,4.9-1.2,3.9.6,5.3,1.9c1.3,1.3,2,3,2,5v15.4h3.7v-16.2c0-2.8-.9-5.1-2.6-6.8-1.8-1.7-4.1-2.6-7-2.6h0Z"/>
    <path class="st1" d="M885.8,292.2c-.5-.5-1.2-.7-1.9-.7s-1.4.2-1.9.7-.8,1.1-.8,1.9.3,1.3.8,1.8c.5.5,1.2.7,1.9.7s1.4-.2,1.9-.7c.5-.5.8-1.1.8-1.8s-.3-1.4-.8-1.9Z"/>
  </g>
  <g>
    <path class="st0" d="M213.7,166.2h-77.4c-3.8,0-6.9-3.1-6.9-6.9s3.1-6.9,6.9-6.9h77.4c3.8,0,6.9,3.1,6.9,6.9s-3.1,6.9-6.9,6.9Z"/>
    <path class="st0" d="M180.5,186.7h-60.9c-3.8,0-6.9-3.1-6.9-6.9s3.1-6.9,6.9-6.9h60.9c3.8,0,6.9,3.1,6.9,6.9s-3.1,6.9-6.9,6.9Z"/>
    <path class="st0" d="M190.7,207.2h-51.8c-3.8,0-6.9-3.1-6.9-6.9s3.1-6.9,6.9-6.9h51.8c3.8,0,6.9,3.1,6.9,6.9s-3.1,6.9-6.9,6.9Z"/>
    <path class="st0" d="M178.5,227.2h-27.4c-3.9,0-7.1-3.1-7.1-6.9s3.2-6.9,7.1-6.9h27.4c3.9,0,7.1,3.1,7.1,6.9s-3.2,6.9-7.1,6.9Z"/>
    <path class="st0" d="M166.8,246h-4.8c-3.8,0-6.9-3.1-6.9-6.9s3.1-6.9,6.9-6.9h4.8c3.8,0,6.9,3.1,6.9,6.9s-3.1,6.9-6.9,6.9Z"/>
  </g>
</svg>