<svg xmlns="http://www.w3.org/2000/svg" viewBox="0 28 945 190">
  <path d="M137.79,69.44H43.52c-5.52,0-10-4.48-10-10s4.48-10,10-10h94.27c5.52,0,10,4.48,10,10s-4.48,10-10,10Z" fill="#ffffff"/>
  <path d="M96.18,94.29H23.12c-5.52,0-10-4.48-10-10s4.48-10,10-10h73.06c5.52,0,10,4.48,10,10s-4.48,10-10,10Z" fill="#ffffff"/>
  <path d="M109.07,119.14h-62.33c-5.52,0-10-4.48-10-10s4.48-10,10-10h62.33c5.52,0,10,4.48,10,10s-4.48,10-10,10Z" fill="#ffffff"/>
  <path d="M94.42,143.99h-32.87c-5.52,0-10-4.48-10-10s4.48-10,10-10h32.87c5.52,0,10,4.48,10,10s-4.48,10-10,10Z" fill="#ffffff"/>
  <path d="M77.98,168.84h-1.1c-5.52,0-10-4.48-10-10s4.48-10,10-10h1.1c5.52,0,10,4.48,10,10s-4.48,10-10,10Z" fill="#ffffff"/>

  <g transform="translate(25, 0)">
  <path d="M198.73,74.6h-20.03v-19.24c0-1.45-1.17-2.62-2.62-2.62h-14.42c-1.45,0-2.62,1.17-2.62,2.62v19.24h-8.63c-1.45,0-2.62,1.17-2.62,2.62v11.88c0,1.45,1.17,2.62,2.62,2.62h8.63v48.55c0,9.18,2.31,15.95,6.86,20.15,4.49,4.14,11.17,6.24,19.84,6.24h12.99c1.45,0,2.62-1.17,2.62-2.62v-12.2c0-1.45-1.17-2.62-2.62-2.62h-10.61c-3.66,0-6.26-.65-7.52-1.87-1.24-1.2-1.9-3.65-1.9-7.07v-48.55h20.03c1.45,0,2.62-1.17,2.62-2.62v-11.88c0-1.45-1.17-2.62-2.62-2.62Z" fill="#ffffff"/>
  <path d="M261.78,73.01c-7.26,0-13.54,1.75-18.65,5.2-2.54,1.71-4.8,3.78-6.77,6.18v-7.18c0-1.45-1.17-2.62-2.62-2.62h-14.42c-1.45,0-2.62,1.17-2.62,2.62v86.82c0,1.45,1.17,2.62,2.62,2.62h14.42c1.45,0,2.62-1.17,2.62-2.62v-47.21c0-16.15,6.87-23.68,21.62-23.68h3.8c1.45,0,2.62-1.17,2.62-2.62v-14.89c0-1.45-1.17-2.62-2.62-2.62Z" fill="#ffffff"/>
  <path d="M289.03,40.85c-3.45,0-6.42,1.22-8.82,3.62-2.4,2.4-3.62,5.37-3.62,8.82s1.22,6.42,3.62,8.82c2.4,2.4,5.37,3.62,8.82,3.62s6.26-1.23,8.61-3.65c2.33-2.4,3.51-5.36,3.51-8.8s-1.18-6.4-3.51-8.8c-2.35-2.42-5.25-3.65-8.61-3.65Z" fill="#ffffff"/>
  <rect x="278.96" y="74.6" width="19.66" height="92.06" rx="2.62" ry="2.62" fill="#ffffff"/>
  <path d="M406.43,74.6h-14.58c-1.45,0-2.62,1.17-2.62,2.62v7.93c-2.42-2.53-5.31-4.77-8.66-6.71-6.03-3.49-13.11-5.26-21.04-5.26s-15.66,1.99-22.32,5.91c-6.68,3.93-11.99,9.52-15.79,16.63-3.78,7.06-5.7,15.34-5.7,24.61s1.91,17.45,5.68,24.66c3.8,7.26,9.11,12.99,15.78,17.03,6.67,4.04,14.19,6.08,22.35,6.08s15.02-1.83,21-5.45c3.34-2.02,6.25-4.35,8.7-6.96v10.26c0,8.21-2.27,14.62-6.75,19.05-4.55,4.5-10.3,6.69-17.56,6.69-6.42,0-11.97-1.48-16.48-4.41-4.47-2.9-7.33-6.6-8.74-11.31-.33-1.11-1.35-1.87-2.51-1.87h-14.26c-.76,0-1.49.33-1.98.91-.5.58-.72,1.34-.61,2.1,1.47,9.99,6.37,17.99,14.54,23.78,8.02,5.68,18.12,8.56,30.03,8.56,8.75,0,16.56-1.87,23.21-5.56,6.69-3.71,11.92-8.94,15.52-15.53,3.58-6.54,5.39-14.08,5.39-22.41v-88.72c0-1.45-1.17-2.62-2.62-2.62ZM389.23,120.47c0,6.08-1.23,11.44-3.65,15.95-2.4,4.45-5.66,7.89-9.69,10.22-4.06,2.34-8.61,3.53-13.5,3.53s-9.41-1.19-13.41-3.52c-3.99-2.33-7.23-5.77-9.63-10.23-2.42-4.5-3.65-9.92-3.65-16.11s1.23-11.41,3.64-15.86c2.39-4.4,5.62-7.79,9.61-10.07,4.01-2.29,8.53-3.46,13.43-3.46s9.44,1.19,13.5,3.53c4.04,2.33,7.31,5.75,9.7,10.15,2.42,4.45,3.64,9.79,3.64,15.86Z" fill="#ffffff"/>
  <path d="M516.69,74.6h-14.58c-1.45,0-2.62,1.17-2.62,2.62v7.93c-2.42-2.53-5.31-4.77-8.66-6.71-6.03-3.49-13.11-5.26-21.04-5.26s-15.66,1.99-22.32,5.91c-6.68,3.93-11.99,9.52-15.79,16.63-3.78,7.06-5.7,15.34-5.7,24.61s1.91,17.45,5.68,24.66c3.8,7.26,9.11,12.99,15.78,17.03,6.67,4.04,14.19,6.08,22.35,6.08s15.02-1.83,21-5.45c3.34-2.02,6.25-4.35,8.7-6.96v10.26c0,8.21-2.27,14.62-6.75,19.05-4.55,4.5-10.3,6.69-17.56,6.69-6.42,0-11.97-1.48-16.48-4.41-4.47-2.9-7.33-6.6-8.74-11.31-.33-1.11-1.35-1.87-2.51-1.87h-14.26c-.76,0-1.49.33-1.98.91-.5.58-.72,1.34-.61,2.1,1.47,9.99,6.37,17.99,14.54,23.78,8.02,5.68,18.12,8.56,30.03,8.56,8.75,0,16.56-1.87,23.21-5.56,6.69-3.71,11.92-8.94,15.52-15.53,3.58-6.54,5.39-14.08,5.39-22.41v-88.72c0-1.45-1.17-2.62-2.62-2.62ZM499.49,120.47c0,6.08-1.23,11.44-3.65,15.95-2.4,4.45-5.66,7.89-9.7,10.22-4.06,2.34-8.61,3.53-13.5,3.53s-9.41-1.19-13.41-3.52c-3.99-2.33-7.23-5.77-9.63-10.23-2.42-4.5-3.65-9.92-3.65-16.11s1.23-11.41,3.64-15.86c2.39-4.4,5.62-7.79,9.61-10.07,4.01-2.29,8.53-3.46,13.43-3.46s9.44,1.19,13.5,3.53c4.04,2.33,7.31,5.75,9.7,10.15,2.42,4.45,3.64,9.79,3.64,15.86Z" fill="#ffffff"/>
  <path d="M604.89,78.9s0,0,0,0c-6.66-3.8-14.43-5.73-23.08-5.73s-16.84,1.95-23.7,5.8c-6.91,3.88-12.35,9.48-16.16,16.66-3.78,7.11-5.69,15.47-5.69,24.84s1.97,17.77,5.86,24.94c3.92,7.22,9.4,12.87,16.3,16.79,6.86,3.91,14.73,5.89,23.4,5.89,10.88,0,20.15-2.81,27.56-8.37,7.41-5.56,12.42-12.88,14.89-21.75.22-.79.06-1.64-.44-2.29-.5-.65-1.27-1.04-2.09-1.04h-15.53c-1.12,0-2.11.71-2.48,1.76-1.52,4.36-4.07,7.75-7.82,10.35-3.7,2.58-8.45,3.89-14.11,3.89-7.09,0-12.91-2.21-17.78-6.74-4.28-3.98-6.77-9.15-7.57-15.74h66.54c1.34,0,2.47-1.02,2.61-2.35.32-3.14.49-6.1.49-8.82,0-8.23-1.87-15.75-5.56-22.35-3.7-6.62-8.97-11.91-15.64-15.73ZM556.65,112.46c.87-6.47,3.32-11.5,7.45-15.34,4.72-4.38,10.3-6.51,17.07-6.51,4.63,0,8.89.97,12.68,2.89,3.76,1.9,6.65,4.61,8.84,8.27,1.8,3.01,2.86,6.6,3.18,10.69h-49.21Z" fill="#ffffff"/>
  <path d="M688.11,73.01c-7.26,0-13.54,1.75-18.66,5.2-2.54,1.71-4.8,3.78-6.77,6.18v-7.18c0-1.45-1.17-2.62-2.62-2.62h-14.42c-1.45,0-2.62,1.17-2.62,2.62v86.82c0,1.45,1.17,2.62,2.62,2.62h14.42c1.45,0,2.62-1.17,2.62-2.62v-47.21c0-16.15,6.87-23.68,21.62-23.68h3.8c1.45,0,2.62-1.17,2.62-2.62v-14.89c0-1.45-1.17-2.62-2.62-2.62Z" fill="#ffffff"/>
  </g>

  <g transform="translate(25, 0)">
  <path d="M759.97,53.35c-.38-1.04-1.36-1.73-2.46-1.73h-16.64c-1.1,0-2.09.69-2.46,1.73l-39.92,109.79c-.29.8-.17,1.7.32,2.4.49.7,1.29,1.12,2.15,1.12h15.21c1.1,0,2.09-.69,2.47-1.73l8.25-22.83h44.48l8.25,22.83c.38,1.04,1.36,1.73,2.47,1.73h15.21c.85,0,1.66-.42,2.15-1.12.49-.7.61-1.59.32-2.4l-39.77-109.79ZM765.5,125.61h-32.8l16.4-45.84,16.4,45.84Z" fill="#ffffff"/>
  <rect x="815.24" y="44.18" width="19.66" height="122.48" rx="2.62" ry="2.62" fill="#ffffff"/>
  <rect x="857.38" y="44.18" width="19.66" height="122.48" rx="2.62" ry="2.62" fill="#ffffff"/>
  </g>
</svg>