<?xml version="1.0" encoding="UTF-8"?>
<svg id="Layer_1" xmlns="http://www.w3.org/2000/svg" version="1.1" viewBox="0 0 314.4 83.1">
  <!-- Generator: Adobe Illustrator 30.1.0, SVG Export Plug-In . SVG Version: 2.1.1 Build 136)  -->
  <defs>
    <style>
      .st0 {
        fill: #b3d237;
      }

      .st1 {
        fill: #091d1b;
      }

      .st2 {
        fill: #0d3d39;
      }
    </style>
  </defs>
  <g>
    <path class="st1" d="M12.1,51c-7.6-.2-11.4-4.6-11.4-13.1s3.8-12.8,11.4-12.8c7.9,0,11.7,4.9,11.2,14.7H7.2c.2,3.8,1.9,5.8,5,5.8s2.8-.6,4.1-1.8c.6-.6,1.3-.9,2.1-.9h4.6c-1.4,5.3-4.8,8.2-10.9,8.2ZM7.3,35.2h9.4c-.4-3.3-1.9-5-4.6-5s-4.3,1.7-4.8,5Z"/>
    <path class="st1" d="M51.1,25.5l-8.8,25h-6.7l-8.8-25h7l5.1,17.5,4.4-15.3c.5-1.5,1.5-2.2,3.1-2.2h4.9Z"/>
    <path class="st1" d="M65.6,51c-7.6-.2-11.4-4.6-11.4-13.1s3.8-12.8,11.4-12.8c7.9,0,11.7,4.9,11.2,14.7h-16.2c.2,3.8,1.9,5.8,5,5.8s2.8-.6,4.1-1.8c.6-.6,1.3-.9,2.1-.9h4.6c-1.4,5.3-4.8,8.2-10.9,8.2ZM60.8,35.2h9.4c-.4-3.3-1.9-5-4.6-5s-4.3,1.7-4.8,5Z"/>
    <path class="st1" d="M98.9,50.5c-2.1-.1-3.1-1.1-3.1-3.1v-12.9c-.1-2.6-1.6-3.9-4.4-3.9s-4.2,1.3-4.3,3.9v16h-6.4v-14.7c0-7.1,3.6-10.7,10.7-10.7s10.6,3.5,10.6,10.7v14.7h-3.2Z"/>
    <path class="st1" d="M112.8,30h-.7v13.9c0,1,.6,1.6,1.8,1.6h1.9v4.8c-2,.2-4.3.2-6.6,0s-3.5-1.7-3.5-4.5v-27.3h3.3c1.7,0,3,1.5,3,3.2v4h3.8v1.4c0,1.8-1.4,3.1-3.1,3.1Z"/>
    <path class="st1" d="M130.5,45.9c2.6,0,4-.8,4-2.4s-2.2-2.3-6.5-3.1c-5.5-1-8.4-3.5-8.4-7.4,0-5.4,4.3-7.9,10-8,3.2,0,5.8.7,7.7,2.1,1.8,1.5,2.8,3.5,3,6.1h-4c-1.5,0-2.4-.6-2.8-1.6-.4-1.1-1.7-1.7-3.8-1.7s-3.7.7-3.7,1.9,1.6,2.3,4.9,2.9c4.3.9,7,1.9,8.4,3.2,1.2,1.2,1.8,2.7,1.8,4.4,0,6.1-4.8,8.4-11.4,8.4s-6.1-.8-7.9-2.2c-1.9-1.4-2.8-3.6-2.8-6.5h6.4c.1,2.7,2.1,3.7,5.2,3.7Z"/>
    <path class="st1" d="M151,57.2c0,2.1-1,3.1-3.1,3.1h-3.2v-23.9c.3-7.5,4.2-11.2,11.7-11.2s11.6,4.2,11.6,12.6-3.3,12.9-10,13.1c-3.1,0-5.5-1.3-7.1-3.9v10.1ZM156.3,45.3c3.4,0,5.2-2.4,5.3-7.2,0-5.1-1.8-7.6-5.4-7.6s-5.3,2.5-5.2,7.6c.2,4.8,1.9,7.2,5.3,7.2Z"/>
    <path class="st1" d="M183.6,30.7c-3.7,0-5.3,3.1-5.3,7v12.8h-6.3V18.3h3.2c2.1,0,3.1,1.1,3.1,3.2v7.5c3.2-3.7,7.1-4.7,11.8-3.1,3.5,1.3,5.2,4.6,5,10.1v14.5h-6.2v-12.8c0-4.2-1.6-7-5.2-7Z"/>
    <path class="st1" d="M210.3,51c-7.6-.2-11.4-4.6-11.4-13.1s3.8-12.8,11.4-12.8c7.9,0,11.7,4.9,11.2,14.7h-16.2c.2,3.8,1.9,5.8,5,5.8s2.8-.6,4.1-1.8c.6-.6,1.3-.9,2.1-.9h4.6c-1.4,5.3-4.8,8.2-10.9,8.2ZM205.6,35.2h9.4c-.4-3.3-1.9-5-4.6-5s-4.3,1.7-4.8,5Z"/>
    <path class="st1" d="M225.5,37.6c.2-8.1,4.5-12.1,12.9-12.1h.9v6.5h-2.1c-3.5,0-5.3,1.8-5.3,5.5v13h-6.4v-12.9Z"/>
    <path class="st1" d="M254.3,51c-7.6-.2-11.4-4.6-11.4-13.1s3.8-12.8,11.4-12.8c7.9,0,11.7,4.9,11.2,14.7h-16.2c.2,3.8,1.9,5.8,5,5.8s2.8-.6,4.1-1.8c.6-.6,1.3-.9,2.1-.9h4.6c-1.4,5.3-4.8,8.2-10.9,8.2ZM249.6,35.2h9.4c-.4-3.3-1.9-5-4.6-5s-4.3,1.7-4.8,5Z"/>
  </g>
  <g>
    <path class="st2" d="M313.7,0l-21.7,31.5c-1.5-3.1-4.3-5.5-7.7-6.5l15-22.2c1-1.9,2.5-2.8,4.7-2.8h9.8Z"/>
    <path class="st2" d="M277.4,25.2c-3.4,1-6.2,3.5-7.7,6.7l-8.8-14.1h10.3c1.2,0,2.3.7,3,1.7l3.2,5.7Z"/>
    <path class="st2" d="M279.6,49l-5.1,9c-.8,1.4-2.2,2.2-3.8,2.2h-10.5l10.6-16.7c2,3,5.2,5,8.9,5.4Z"/>
    <path class="st2" d="M301.3,60.3h-8.1c-2.9,0-5.6-1.6-7.1-4.1l-4-7.1c3.5-.4,6.6-2.2,8.6-4.9l10.5,16.2Z"/>
  </g>
  <g>
    <path class="st0" d="M152.7,68v-6.7h-2.1v-.9h5.2v.9h-2.1v6.7h-.9Z"/>
    <path class="st0" d="M156.6,68v-8h.8v4c.2-.3.4-.5.7-.7.3-.1.6-.2,1-.2.6,0,1,.1,1.3.4.3.3.5.7.5,1.2v3.2h-.8v-2.8c0-.5-.1-.8-.3-1.1-.2-.2-.5-.3-.9-.3s-.5,0-.7.1-.4.2-.5.4c0,.1-.2.3-.2.4s0,.4,0,.8v2.4h-.8Z"/>
    <path class="st0" d="M166.7,65.8h-3.7c0,.6.1,1,.4,1.3.3.3.7.5,1.1.5s.6,0,.9-.3c.3-.2.5-.4.7-.8l.6.4c-.2.4-.5.7-.9,1-.4.2-.8.3-1.3.3-.7,0-1.3-.2-1.7-.7-.4-.5-.7-1.1-.7-1.9s.2-1.3.7-1.8c.4-.5,1-.7,1.7-.7s1.2.2,1.7.7c.4.4.6,1.1.6,1.8v.2ZM165.8,65.1c0-.4-.2-.7-.4-1s-.6-.3-1-.3-.7.1-1,.4-.4.5-.5.9h2.9Z"/>
    <path class="st0" d="M171.1,68v-7.8l5.5,6v-5.7h.9v7.8l-5.5-6v5.7h-.9Z"/>
    <path class="st0" d="M183.4,65.8h-3.7c0,.6.1,1,.4,1.3.3.3.7.5,1.1.5s.6,0,.9-.3c.3-.2.5-.4.7-.8l.6.4c-.2.4-.5.7-.9,1-.4.2-.8.3-1.3.3-.7,0-1.3-.2-1.7-.7-.4-.5-.7-1.1-.7-1.9s.2-1.3.7-1.8c.4-.5,1-.7,1.7-.7s1.2.2,1.7.7c.4.4.6,1.1.6,1.8v.2ZM182.5,65.1c0-.4-.2-.7-.4-1s-.6-.3-1-.3-.7.1-1,.4-.4.5-.5.9h2.9Z"/>
    <path class="st0" d="M183.8,68l1.8-2.4-1.8-2.3h1l1.2,1.7,1.2-1.7h1l-1.8,2.3,1.8,2.4h-1l-1.3-1.8-1.3,1.8h-1Z"/>
    <path class="st0" d="M189.3,64h-.9v-.7h.9v-1.9h.8v1.9h.9v.7h-.9v4h-.8v-4Z"/>
    <path class="st0" d="M195.1,68v-7.5h1.4c1.1,0,1.8,0,2.3.2.4.1.8.3,1.2.5.4.3.8.8,1,1.3.2.5.3,1.1.3,1.8s-.1,1.3-.3,1.8c-.2.5-.5.9-1,1.3-.3.3-.7.4-1.1.5-.4.1-1.1.2-2,.2h-1.8ZM196,67.2h.6c.9,0,1.6,0,1.9-.1.4,0,.7-.2.9-.4.3-.3.5-.6.7-1,.2-.4.2-.9.2-1.4s0-1-.2-1.4c-.2-.4-.4-.7-.7-1-.2-.2-.5-.3-.9-.4-.4,0-1-.1-1.9-.1h-.6v5.9Z"/>
    <path class="st0" d="M202.5,61c0-.2,0-.3.2-.4.1-.1.3-.2.4-.2s.3,0,.4.2c.1.1.2.3.2.4s0,.3-.2.4-.3.2-.4.2-.3,0-.4-.2-.2-.3-.2-.4ZM202.7,68v-4.7h.8v4.7h-.8Z"/>
    <path class="st0" d="M211.8,68v-2.8c0-.5,0-.8-.3-1.1-.2-.2-.5-.3-.9-.3s-.4,0-.6.1-.3.2-.5.4c0,.1-.2.3-.2.4,0,.2,0,.4,0,.8v2.4h-.8v-2.8c0-.5,0-.8-.3-1.1-.2-.2-.5-.3-.9-.3s-.4,0-.6.1c-.2,0-.3.2-.5.4,0,.1-.2.3-.2.4,0,.2,0,.4,0,.8v2.4h-.8v-4.7h.8v.7c.2-.3.4-.5.7-.7.3-.1.6-.2.9-.2s.7,0,1,.2c.3.2.5.4.6.7.2-.3.4-.6.7-.7.3-.2.6-.2,1-.2.5,0,.9.1,1.2.4s.4.7.4,1.2v3.2h-.8Z"/>
    <path class="st0" d="M218.4,65.8h-3.7c0,.6.1,1,.4,1.3.3.3.7.5,1.1.5s.6,0,.9-.3c.3-.2.5-.4.7-.8l.6.4c-.2.4-.5.7-.9,1-.4.2-.8.3-1.3.3-.7,0-1.3-.2-1.7-.7-.4-.5-.7-1.1-.7-1.9s.2-1.3.7-1.8c.4-.5,1-.7,1.7-.7s1.2.2,1.7.7c.4.4.6,1.1.6,1.8v.2ZM217.5,65.1c0-.4-.2-.7-.4-1s-.6-.3-1-.3-.7.1-1,.4-.4.5-.5.9h2.9Z"/>
    <path class="st0" d="M219.6,68v-4.7h.8v.7c.2-.3.4-.5.7-.7.3-.1.6-.2,1-.2.6,0,1,.1,1.3.4.3.3.5.7.5,1.2v3.2h-.8v-2.8c0-.5-.1-.8-.3-1.1-.2-.2-.5-.3-.9-.3s-.5,0-.7.1-.4.2-.5.4c0,.1-.2.3-.2.4s0,.4,0,.8v2.4h-.8Z"/>
    <path class="st0" d="M225,67.2l.7-.5c.1.3.3.4.5.6.2.1.4.2.7.2s.5,0,.6-.2c.2-.1.2-.3.2-.5s0-.3-.2-.4c-.1-.1-.3-.2-.6-.3h-.1c-1.1-.4-1.7-.9-1.7-1.5s.2-.8.5-1c.3-.3.7-.4,1.2-.4s.8,0,1,.2c.3.2.5.4.6.7l-.7.4c0-.2-.2-.4-.4-.5-.2-.1-.4-.2-.7-.2s-.4,0-.6.2-.2.3-.2.5.3.5.9.7c.1,0,.2,0,.3,0,.5.2.9.4,1.1.6s.3.5.3.8-.2.8-.5,1.1-.7.4-1.2.4-.8,0-1.1-.2c-.3-.2-.6-.4-.7-.7Z"/>
    <path class="st0" d="M229.6,61c0-.2,0-.3.2-.4.1-.1.3-.2.4-.2s.3,0,.4.2c.1.1.2.3.2.4s0,.3-.2.4-.3.2-.4.2-.3,0-.4-.2c-.1-.1-.2-.3-.2-.4ZM229.8,68v-4.7h.8v4.7h-.8Z"/>
    <path class="st0" d="M231.9,65.7c0-.3,0-.7.2-1s.3-.6.6-.8.5-.4.8-.5c.3-.1.6-.2,1-.2s.7,0,1,.2c.3.1.6.3.8.6.2.2.4.5.6.8.1.3.2.6.2,1s0,.7-.2,1c-.1.3-.3.6-.6.8-.3.2-.5.4-.8.6-.3.1-.6.2-1,.2s-.7,0-1-.2c-.3-.1-.6-.3-.8-.6-.2-.2-.4-.5-.6-.8-.1-.3-.2-.6-.2-1ZM232.8,65.7c0,.5.2.9.5,1.3.3.3.7.5,1.2.5s.9-.2,1.2-.5c.3-.3.5-.8.5-1.3s-.2-.9-.5-1.3c-.3-.3-.7-.5-1.2-.5s-.9.2-1.2.5c-.3.3-.5.8-.5,1.3Z"/>
    <path class="st0" d="M238.3,68v-4.7h.8v.7c.2-.3.4-.5.7-.7.3-.1.6-.2,1-.2.6,0,1,.1,1.3.4.3.3.5.7.5,1.2v3.2h-.8v-2.8c0-.5-.1-.8-.3-1.1-.2-.2-.5-.3-.9-.3s-.5,0-.7.1-.4.2-.5.4c0,.1-.2.3-.2.4s0,.4,0,.8v2.4h-.8Z"/>
    <path class="st0" d="M247.1,61c0-.2,0-.3.2-.4.1-.1.3-.2.4-.2s.3,0,.4.2c.1.1.2.3.2.4s0,.3-.2.4-.3.2-.4.2-.3,0-.4-.2c-.1-.1-.2-.3-.2-.4ZM247.3,68v-4.7h.8v4.7h-.8Z"/>
    <path class="st0" d="M249.8,68v-4.7h.8v.7c.2-.3.4-.5.7-.7.3-.1.6-.2,1-.2.6,0,1,.1,1.3.4.3.3.5.7.5,1.2v3.2h-.8v-2.8c0-.5-.1-.8-.3-1.1-.2-.2-.5-.3-.9-.3s-.5,0-.7.1c-.2,0-.4.2-.5.4,0,.1-.2.3-.2.4s0,.4,0,.8v2.4h-.8Z"/>
    <path class="st0" d="M151.3,80.7v-7.5h4v.8h-3.1v2.2h3.1v.8h-3.1v2.9h3.1v.8h-4Z"/>
    <path class="st0" d="M158.3,81l-2.3-5h.9l1.4,3.3,1.4-3.3h.9l-2.3,5Z"/>
    <path class="st0" d="M165.7,78.4h-3.7c0,.6.1,1,.4,1.3.3.3.7.5,1.1.5s.6,0,.9-.3.5-.4.7-.8l.6.4c-.2.4-.5.7-.9,1-.4.2-.8.3-1.3.3-.7,0-1.3-.2-1.7-.7-.4-.5-.7-1.1-.7-1.9s.2-1.3.7-1.8c.4-.5,1-.7,1.7-.7s1.2.2,1.7.7.6,1.1.6,1.8v.2ZM164.8,77.8c0-.4-.2-.7-.4-1-.2-.2-.6-.3-1-.3s-.7.1-1,.4-.4.5-.5.9h2.9Z"/>
    <path class="st0" d="M166.9,80.7v-4.7h.8v.7c.2-.3.4-.5.7-.7.3-.1.6-.2,1-.2.6,0,1,.1,1.3.4.3.3.5.7.5,1.2v3.2h-.8v-2.8c0-.5-.1-.8-.3-1.1-.2-.2-.5-.3-.9-.3s-.5,0-.7.1-.4.2-.5.4c0,.1-.2.3-.2.4s0,.4,0,.8v2.4h-.8Z"/>
    <path class="st0" d="M172.9,76.6h-.9v-.7h.9v-1.9h.8v1.9h.9v.7h-.9v4h-.8v-4Z"/>
    <path class="st0" d="M178.7,80.7v-7.5h4v.8h-3.1v2.2h3.1v.8h-3.1v2.9h3.1v.8h-4Z"/>
    <path class="st0" d="M183.3,80.7l1.8-2.4-1.8-2.3h1l1.2,1.7,1.2-1.7h1l-1.8,2.3,1.8,2.4h-1l-1.3-1.8-1.3,1.8h-1Z"/>
    <path class="st0" d="M188.7,83v-7h.8v.9c.2-.3.4-.6.7-.8.3-.2.6-.3,1-.3.7,0,1.2.2,1.6.7.4.5.6,1.1.6,1.8s-.2,1.4-.6,1.9c-.4.5-.9.7-1.6.7s-.7,0-1-.3-.5-.4-.7-.8v3.2h-.8ZM189.5,78.3c0,.5.1,1,.4,1.3.3.3.7.5,1.2.5s.8-.1,1.1-.4c.3-.3.4-.7.4-1.2s-.1-1-.4-1.4c-.3-.3-.6-.5-1.1-.5s-.9.2-1.2.5c-.3.3-.4.7-.4,1.3Z"/>
    <path class="st0" d="M198.9,78.4h-3.7c0,.6.1,1,.4,1.3.3.3.7.5,1.1.5s.6,0,.9-.3.5-.4.7-.8l.6.4c-.2.4-.5.7-.9,1-.4.2-.8.3-1.3.3-.7,0-1.3-.2-1.7-.7-.4-.5-.7-1.1-.7-1.9s.2-1.3.7-1.8c.4-.5,1-.7,1.7-.7s1.2.2,1.7.7.6,1.1.6,1.8v.2ZM198.1,77.8c0-.4-.2-.7-.4-1-.2-.2-.6-.3-1-.3s-.7.1-1,.4-.4.5-.5.9h2.9Z"/>
    <path class="st0" d="M200.2,80.7v-4.7h.7v1c.2-.4.4-.7.7-.9.2-.2.5-.3.9-.3s.2,0,.3,0c0,0,.2,0,.3,0l-.3.7c0,0-.2,0-.3,0,0,0-.2,0-.2,0-.4,0-.7.2-1,.5-.2.3-.3.8-.3,1.4v2.3h-.8Z"/>
    <path class="st0" d="M203.7,73.7c0-.2,0-.3.2-.4.1-.1.3-.2.4-.2s.3,0,.4.2c.1.1.2.3.2.4s0,.3-.2.4-.3.2-.4.2-.3,0-.4-.2c-.1-.1-.2-.3-.2-.4ZM203.9,80.7v-4.7h.8v4.7h-.8Z"/>
    <path class="st0" d="M210.6,78.4h-3.7c0,.6.1,1,.4,1.3.3.3.7.5,1.1.5s.6,0,.9-.3.5-.4.7-.8l.6.4c-.2.4-.5.7-.9,1-.4.2-.8.3-1.3.3-.7,0-1.3-.2-1.7-.7-.4-.5-.7-1.1-.7-1.9s.2-1.3.7-1.8c.4-.5,1-.7,1.7-.7s1.2.2,1.7.7.6,1.1.6,1.8v.2ZM209.7,77.8c0-.4-.2-.7-.4-1-.2-.2-.6-.3-1-.3s-.7.1-1,.4-.4.5-.5.9h2.9Z"/>
    <path class="st0" d="M211.8,80.7v-4.7h.8v.7c.2-.3.4-.5.7-.7.3-.1.6-.2,1-.2.6,0,1,.1,1.3.4.3.3.5.7.5,1.2v3.2h-.8v-2.8c0-.5-.1-.8-.3-1.1-.2-.2-.5-.3-.9-.3s-.5,0-.7.1-.4.2-.5.4c0,.1-.2.3-.2.4s0,.4,0,.8v2.4h-.8Z"/>
    <path class="st0" d="M221.3,79.6v.9c-.2.1-.5.2-.7.3-.3,0-.6,0-.9,0-.7,0-1.3-.2-1.8-.7-.4-.5-.7-1.1-.7-1.8s.2-1.4.7-1.9c.5-.5,1-.7,1.8-.7s.5,0,.8,0,.5.1.7.2v.9c-.2-.1-.4-.2-.6-.3s-.4-.1-.7-.1c-.5,0-1,.2-1.3.5s-.5.8-.5,1.3.2.9.5,1.2c.3.3.7.5,1.2.5s.5,0,.7-.1.5-.2.7-.4Z"/>
    <path class="st0" d="M226.6,78.4h-3.7c0,.6.1,1,.4,1.3.3.3.7.5,1.1.5s.6,0,.9-.3c.3-.2.5-.4.7-.8l.6.4c-.2.4-.5.7-.9,1-.4.2-.8.3-1.3.3-.7,0-1.3-.2-1.7-.7-.4-.5-.7-1.1-.7-1.9s.2-1.3.7-1.8c.4-.5,1-.7,1.7-.7s1.2.2,1.7.7c.4.4.6,1.1.6,1.8v.2ZM225.8,77.8c0-.4-.2-.7-.4-1s-.6-.3-1-.3-.7.1-1,.4-.4.5-.5.9h2.9Z"/>
    <path class="st0" d="M227.4,79.9l.7-.5c.1.3.3.4.5.6.2.1.4.2.7.2s.5,0,.6-.2c.2-.1.2-.3.2-.5s0-.3-.2-.4c-.1-.1-.3-.2-.6-.3h-.1c-1.1-.4-1.7-.9-1.7-1.5s.2-.8.5-1c.3-.3.7-.4,1.2-.4s.8,0,1,.2c.3.2.5.4.6.7l-.7.4c0-.2-.2-.4-.4-.5-.2-.1-.4-.2-.7-.2s-.4,0-.6.2-.2.3-.2.5.3.5.9.7c.1,0,.2,0,.3,0,.5.2.9.4,1.1.6s.3.5.3.8-.2.8-.5,1.1-.7.4-1.2.4-.8,0-1.1-.2c-.3-.2-.6-.4-.7-.7Z"/>
  </g>
  <g>
    <path class="st0" d="M280.9,33c-2.3,0-4.1,1.8-4.1,4.1s1.8,4.1,4.1,4.1,4.1-1.8,4.1-4.1-1.8-4.1-4.1-4.1Z"/>
    <path class="st0" d="M280.9,27c-5.5,0-10,4.5-10,10s4.5,10,10,10,10-4.5,10-10-4.5-10-10-10ZM273.9,37c0-3.1,2-5.8,4.9-6.7.7-.2,1.4-.3,2.2-.3,2.8,0,5.2,1.6,6.4,3.9,0,0,0,.1,0,.2,0,0,0,.2.1.3.3.8.5,1.8.5,2.7,0,3.9-3.2,7.1-7.1,7.1s-7.1-3.2-7.1-7.1Z"/>
  </g>
</svg>